<mxfile host="Electron" modified="2023-11-07T14:04:19.353Z" agent="Mozilla/5.0 (Macintosh; Intel Mac OS X 10_15_7) AppleWebKit/537.36 (KHTML, like Gecko) draw.io/22.0.3 Chrome/114.0.5735.289 Electron/25.8.4 Safari/537.36" etag="3HtHzTNdRghqBM9y7I0g" version="22.0.3" type="device">
  <diagram id="eOFOYFhU0GsHmSKvHhCn" name="Pagina-1">
    <mxGraphModel dx="1257" dy="923" grid="1" gridSize="10" guides="1" tooltips="1" connect="1" arrows="1" fold="1" page="1" pageScale="1" pageWidth="827" pageHeight="1169" math="1" shadow="0">
      <root>
        <mxCell id="0" />
        <mxCell id="1" parent="0" />
        <mxCell id="-Wk1aWWQlNWJjsIihzdT-6" value="$$V(x)$$" style="text;html=1;strokeColor=none;fillColor=none;align=center;verticalAlign=middle;whiteSpace=wrap;rounded=0;fontSize=13;fontColor=#1A1A1A;" parent="1" vertex="1">
          <mxGeometry x="505" y="308" width="60" height="30" as="geometry" />
        </mxCell>
        <mxCell id="1sHnC9SIz_1kgPtoTxCF-2" value="$$x^*$$" style="text;html=1;strokeColor=none;fillColor=none;align=center;verticalAlign=middle;whiteSpace=wrap;rounded=0;fontSize=15;fontColor=#1A1A1A;" parent="1" vertex="1">
          <mxGeometry x="473" y="482" width="60" height="30" as="geometry" />
        </mxCell>
        <mxCell id="1sHnC9SIz_1kgPtoTxCF-3" value="" style="endArrow=none;html=1;rounded=0;edgeStyle=orthogonalEdgeStyle;curved=1;" parent="1" edge="1">
          <mxGeometry width="50" height="50" relative="1" as="geometry">
            <mxPoint x="300" y="270" as="sourcePoint" />
            <mxPoint x="520" y="470" as="targetPoint" />
            <Array as="points">
              <mxPoint x="300" y="470" />
            </Array>
          </mxGeometry>
        </mxCell>
        <mxCell id="-Wk1aWWQlNWJjsIihzdT-1" value="" style="endArrow=classic;html=1;rounded=0;fontSize=25;fontColor=#1A1A1A;strokeWidth=2;" parent="1" edge="1">
          <mxGeometry width="50" height="50" relative="1" as="geometry">
            <mxPoint x="240" y="470" as="sourcePoint" />
            <mxPoint x="563" y="470" as="targetPoint" />
          </mxGeometry>
        </mxCell>
        <mxCell id="1sHnC9SIz_1kgPtoTxCF-1" value="" style="endArrow=classic;html=1;rounded=0;fontSize=25;fontColor=#1A1A1A;strokeWidth=2;" parent="1" edge="1">
          <mxGeometry width="50" height="50" relative="1" as="geometry">
            <mxPoint x="500" y="490" as="sourcePoint" />
            <mxPoint x="500" y="240" as="targetPoint" />
          </mxGeometry>
        </mxCell>
        <mxCell id="g6H5PsluWuEb6vaTz6EE-4" value="" style="endArrow=none;dashed=1;html=1;strokeWidth=2;rounded=0;" parent="1" edge="1">
          <mxGeometry width="50" height="50" relative="1" as="geometry">
            <mxPoint x="300" y="293" as="sourcePoint" />
            <mxPoint x="519" y="293" as="targetPoint" />
          </mxGeometry>
        </mxCell>
        <mxCell id="g6H5PsluWuEb6vaTz6EE-7" value="$$\alpha_0$$" style="text;html=1;strokeColor=none;fillColor=none;align=center;verticalAlign=middle;whiteSpace=wrap;rounded=0;fontSize=15;fontColor=#1A1A1A;" parent="1" vertex="1">
          <mxGeometry x="506" y="277" width="60" height="30" as="geometry" />
        </mxCell>
        <mxCell id="rgP2N9JaqtHhb8GfTGPO-1" value="$$x$$" style="text;html=1;strokeColor=none;fillColor=none;align=center;verticalAlign=middle;whiteSpace=wrap;rounded=0;fontSize=13;fontColor=#1A1A1A;" vertex="1" parent="1">
          <mxGeometry x="284" y="296" width="60" height="30" as="geometry" />
        </mxCell>
        <mxCell id="rgP2N9JaqtHhb8GfTGPO-2" value="" style="ellipse;whiteSpace=wrap;html=1;aspect=fixed;strokeColor=default;fillColor=#000000;" vertex="1" parent="1">
          <mxGeometry x="303" y="321" width="4" height="4" as="geometry" />
        </mxCell>
        <mxCell id="rgP2N9JaqtHhb8GfTGPO-5" value="$$z$$" style="text;html=1;strokeColor=none;fillColor=none;align=center;verticalAlign=middle;whiteSpace=wrap;rounded=0;fontSize=13;fontColor=#1A1A1A;" vertex="1" parent="1">
          <mxGeometry x="296.5" y="352" width="60" height="30" as="geometry" />
        </mxCell>
        <mxCell id="rgP2N9JaqtHhb8GfTGPO-16" value="" style="endArrow=none;dashed=1;html=1;strokeWidth=0.8;rounded=0;dashPattern=1 2;" edge="1" parent="1">
          <mxGeometry width="50" height="50" relative="1" as="geometry">
            <mxPoint x="293" y="338" as="sourcePoint" />
            <mxPoint x="341" y="458" as="targetPoint" />
            <Array as="points">
              <mxPoint x="301" y="379" />
              <mxPoint x="323" y="379" />
            </Array>
          </mxGeometry>
        </mxCell>
        <mxCell id="rgP2N9JaqtHhb8GfTGPO-30" value="" style="ellipse;whiteSpace=wrap;html=1;aspect=fixed;strokeColor=default;fillColor=#000000;" vertex="1" parent="1">
          <mxGeometry x="322" y="377" width="4" height="4" as="geometry" />
        </mxCell>
        <mxCell id="rgP2N9JaqtHhb8GfTGPO-33" value="$$V(z) = \alpha$$" style="text;html=1;strokeColor=none;fillColor=none;align=center;verticalAlign=middle;whiteSpace=wrap;rounded=0;fontSize=13;fontColor=#1A1A1A;" vertex="1" parent="1">
          <mxGeometry x="522" y="365" width="60" height="30" as="geometry" />
        </mxCell>
        <mxCell id="rgP2N9JaqtHhb8GfTGPO-34" value="$$B(x)$$" style="text;html=1;strokeColor=none;fillColor=none;align=center;verticalAlign=middle;whiteSpace=wrap;rounded=0;fontSize=13;fontColor=#1A1A1A;" vertex="1" parent="1">
          <mxGeometry x="244" y="320" width="60" height="30" as="geometry" />
        </mxCell>
        <mxCell id="rgP2N9JaqtHhb8GfTGPO-35" value="" style="endArrow=none;dashed=1;html=1;strokeWidth=2;rounded=0;" edge="1" parent="1">
          <mxGeometry width="50" height="50" relative="1" as="geometry">
            <mxPoint x="323" y="379" as="sourcePoint" />
            <mxPoint x="520" y="380" as="targetPoint" />
          </mxGeometry>
        </mxCell>
        <mxCell id="rgP2N9JaqtHhb8GfTGPO-38" value="" style="ellipse;whiteSpace=wrap;html=1;aspect=fixed;strokeColor=default;fillColor=#000000;" vertex="1" parent="1">
          <mxGeometry x="326" y="385" width="3" height="3" as="geometry" />
        </mxCell>
        <mxCell id="rgP2N9JaqtHhb8GfTGPO-39" value="" style="ellipse;whiteSpace=wrap;html=1;aspect=fixed;strokeColor=default;fillColor=#000000;" vertex="1" parent="1">
          <mxGeometry x="333" y="396" width="3" height="3" as="geometry" />
        </mxCell>
        <mxCell id="rgP2N9JaqtHhb8GfTGPO-40" value="" style="ellipse;whiteSpace=wrap;html=1;aspect=fixed;strokeColor=default;fillColor=#000000;" vertex="1" parent="1">
          <mxGeometry x="364" y="427.5" width="3" height="3" as="geometry" />
        </mxCell>
        <mxCell id="rgP2N9JaqtHhb8GfTGPO-41" value="$$z_0$$" style="text;html=1;strokeColor=none;fillColor=none;align=center;verticalAlign=middle;whiteSpace=wrap;rounded=0;fontSize=8;fontColor=#1A1A1A;" vertex="1" parent="1">
          <mxGeometry x="342" y="406.5" width="60" height="30" as="geometry" />
        </mxCell>
        <mxCell id="rgP2N9JaqtHhb8GfTGPO-44" value="" style="endArrow=none;dashed=1;html=1;strokeWidth=2;rounded=0;" edge="1" parent="1">
          <mxGeometry width="50" height="50" relative="1" as="geometry">
            <mxPoint x="307" y="323" as="sourcePoint" />
            <mxPoint x="520" y="323" as="targetPoint" />
          </mxGeometry>
        </mxCell>
        <mxCell id="rgP2N9JaqtHhb8GfTGPO-45" value="$$y$$" style="text;html=1;strokeColor=none;fillColor=none;align=center;verticalAlign=middle;whiteSpace=wrap;rounded=0;fontSize=13;fontColor=#1A1A1A;" vertex="1" parent="1">
          <mxGeometry x="372" y="417" width="60" height="30" as="geometry" />
        </mxCell>
        <mxCell id="rgP2N9JaqtHhb8GfTGPO-50" value="" style="ellipse;whiteSpace=wrap;html=1;aspect=fixed;strokeColor=default;fillColor=#000000;" vertex="1" parent="1">
          <mxGeometry x="344" y="409.5" width="3" height="3" as="geometry" />
        </mxCell>
        <mxCell id="rgP2N9JaqtHhb8GfTGPO-51" value="" style="ellipse;whiteSpace=wrap;html=1;aspect=fixed;strokeColor=default;fillColor=#000000;" vertex="1" parent="1">
          <mxGeometry x="386" y="441" width="4" height="4" as="geometry" />
        </mxCell>
        <mxCell id="rgP2N9JaqtHhb8GfTGPO-53" value="" style="group;movable=1;resizable=1;rotatable=1;deletable=1;editable=1;locked=0;connectable=1;" vertex="1" connectable="0" parent="1">
          <mxGeometry x="307" y="369.5" width="76" height="50.5" as="geometry" />
        </mxCell>
        <mxCell id="rgP2N9JaqtHhb8GfTGPO-42" value="$$z_1$$" style="text;html=1;strokeColor=none;fillColor=none;align=center;verticalAlign=middle;whiteSpace=wrap;rounded=0;fontSize=8;fontColor=#1A1A1A;" vertex="1" parent="rgP2N9JaqtHhb8GfTGPO-53">
          <mxGeometry x="18" y="21" width="60" height="30" as="geometry" />
        </mxCell>
        <mxCell id="rgP2N9JaqtHhb8GfTGPO-43" value="$$z_n$$" style="text;html=1;strokeColor=none;fillColor=none;align=center;verticalAlign=middle;whiteSpace=wrap;rounded=0;fontSize=8;fontColor=#1A1A1A;" vertex="1" parent="rgP2N9JaqtHhb8GfTGPO-53">
          <mxGeometry width="60" height="30" as="geometry" />
        </mxCell>
        <mxCell id="rgP2N9JaqtHhb8GfTGPO-48" value="$$\ddots$$" style="text;html=1;strokeColor=none;fillColor=none;align=center;verticalAlign=middle;whiteSpace=wrap;rounded=0;fontSize=8;fontColor=#1A1A1A;rotation=20;" vertex="1" parent="rgP2N9JaqtHhb8GfTGPO-53">
          <mxGeometry x="8" y="10.5" width="60" height="30" as="geometry" />
        </mxCell>
        <mxCell id="rgP2N9JaqtHhb8GfTGPO-54" value="" style="curved=1;endArrow=classic;html=1;rounded=0;" edge="1" parent="1">
          <mxGeometry width="50" height="50" relative="1" as="geometry">
            <mxPoint x="328" y="380" as="sourcePoint" />
            <mxPoint x="391" y="436.5" as="targetPoint" />
            <Array as="points">
              <mxPoint x="402" y="390.5" />
            </Array>
          </mxGeometry>
        </mxCell>
        <mxCell id="rgP2N9JaqtHhb8GfTGPO-55" value="$$\zeta(t)$$" style="text;html=1;strokeColor=none;fillColor=none;align=center;verticalAlign=middle;whiteSpace=wrap;rounded=0;fontSize=13;fontColor=#1A1A1A;" vertex="1" parent="1">
          <mxGeometry x="372" y="385" width="60" height="30" as="geometry" />
        </mxCell>
        <mxCell id="rgP2N9JaqtHhb8GfTGPO-57" value="" style="endArrow=baseDash;html=1;strokeWidth=1;rounded=0;startArrow=baseDash;startFill=0;endFill=0;" edge="1" parent="1">
          <mxGeometry width="50" height="50" relative="1" as="geometry">
            <mxPoint x="507" y="327" as="sourcePoint" />
            <mxPoint x="507" y="350" as="targetPoint" />
          </mxGeometry>
        </mxCell>
        <mxCell id="rgP2N9JaqtHhb8GfTGPO-59" value="$$\epsilon$$" style="text;html=1;strokeColor=none;fillColor=none;align=center;verticalAlign=middle;whiteSpace=wrap;rounded=0;fontSize=8;fontColor=#1A1A1A;" vertex="1" parent="1">
          <mxGeometry x="483" y="323" width="60" height="30" as="geometry" />
        </mxCell>
        <mxCell id="rgP2N9JaqtHhb8GfTGPO-61" value="" style="endArrow=baseDash;html=1;strokeWidth=1;rounded=0;startArrow=baseDash;startFill=0;endFill=0;" edge="1" parent="1">
          <mxGeometry width="50" height="50" relative="1" as="geometry">
            <mxPoint x="507" y="384" as="sourcePoint" />
            <mxPoint x="507" y="407" as="targetPoint" />
          </mxGeometry>
        </mxCell>
        <mxCell id="rgP2N9JaqtHhb8GfTGPO-62" value="$$\epsilon$$" style="text;html=1;strokeColor=none;fillColor=none;align=center;verticalAlign=middle;whiteSpace=wrap;rounded=0;fontSize=8;fontColor=#1A1A1A;" vertex="1" parent="1">
          <mxGeometry x="483" y="380" width="60" height="30" as="geometry" />
        </mxCell>
      </root>
    </mxGraphModel>
  </diagram>
</mxfile>
